<svg xmlns="http://www.w3.org/2000/svg" width="16.024" height="20.134" viewBox="0 0 16.024 20.134">
  <path id="download_89_" data-name="download (89)" d="M215.444,172.36a.5.5,0,0,0-.457.457v18.721a.474.474,0,0,0,.457.457h14.611a.474.474,0,0,0,.457-.457V176.926a.466.466,0,0,0-.136-.328l-4.109-4.109a.462.462,0,0,0-.321-.128Zm.457.913h9.588v3.653a.474.474,0,0,0,.457.457H229.6v13.7H215.9Zm10.5.642,2.554,2.554H226.4Zm-8.675,6.207a.457.457,0,1,0,0,.913h10.045a.457.457,0,1,0,0-.913Zm0,3.653a.457.457,0,1,0,0,.913h10.045a.457.457,0,1,0,0-.913Zm0,3.653a.457.457,0,1,0,0,.913h10.045a.457.457,0,1,0,0-.913Z" transform="translate(-214.737 -172.11)" fill="#5b5b5b" stroke="#5a5a5a" stroke-width="0.5"/>
</svg>
