<svg xmlns="http://www.w3.org/2000/svg" width="17.292" height="21.087" viewBox="0 0 17.292 21.087">
  <path id="download_87_" data-name="download (87)" d="M182.923,179.29H169.029a1.2,1.2,0,0,0-1.2,1.2v17.689a1.2,1.2,0,0,0,1.2,1.2h13.894a1.2,1.2,0,0,0,1.2-1.2V180.489A1.2,1.2,0,0,0,182.923,179.29Zm-14.429,18.888V180.489a.535.535,0,0,1,.535-.535h1.9v18.761h-1.9a.538.538,0,0,1-.535-.537Zm14.966,0a.535.535,0,0,1-.535.535H171.595V179.954h11.331a.535.535,0,0,1,.535.535Zm-3.077-14.327h-5.62a.7.7,0,0,0-.695.695v3a.7.7,0,0,0,.695.695h5.62a.7.7,0,0,0,.695-.695v-3A.7.7,0,0,0,180.383,183.851Zm.031,3.7a.033.033,0,0,1-.031.031h-5.62a.033.033,0,0,1-.031-.031v-3a.033.033,0,0,1,.031-.031h5.62a.033.033,0,0,1,.031.031Zm-6.012,3.848h6.345v.664H174.4Zm0,2.756h6.345v.664H174.4Z" transform="translate(-167.33 -178.79)" fill="#5b5b5b" stroke="#5a5a5a" stroke-width="1"/>
</svg>
