<svg xmlns="http://www.w3.org/2000/svg" width="34.37" height="31.321" viewBox="0 0 34.37 31.321">
  <path id="download_-_2022-03-16T190920.356" data-name="download - 2022-03-16T190920.356" d="M184.758,184.536h-9.44v-6.612a3.575,3.575,0,0,0-3.569-3.569H158.027a3.575,3.575,0,0,0-3.569,3.569v8.58a3.491,3.491,0,0,0,.611,1.991c1.307,2.546,7.529,6.363,7.591,6.42a.563.563,0,0,0,.815-.69,24.8,24.8,0,0,1-1.131-4.158h5.125v6.618a3.568,3.568,0,0,0,3.569,3.563h9.407a24.791,24.791,0,0,1-1.131,4.157.559.559,0,0,0,.815.685c.062-.04,6.284-3.875,7.591-6.42a3.491,3.491,0,0,0,.611-1.991v-8.575a3.574,3.574,0,0,0-3.569-3.569Zm-19.31,4.4H161.67a.568.568,0,0,0-.56.656,30.7,30.7,0,0,0,.786,3.473c-1.957-1.324-5.04-3.6-5.809-5.062a.743.743,0,0,0-.062-.113,2.4,2.4,0,0,1-.436-1.386v-8.58a2.444,2.444,0,0,1,2.438-2.438h13.722a2.444,2.444,0,0,1,2.438,2.438v6.612h-3.15a3.568,3.568,0,0,0-2.777,1.329,5,5,0,0,1-2.319-.566A7.088,7.088,0,0,0,167.7,181h.713a.566.566,0,1,0,0-1.131h-2.941v-1.787a.566.566,0,1,0-1.131,0v1.77H161.4a.566.566,0,1,0,0,1.131h5.17a5.921,5.921,0,0,1-1.465,3.541l-.09.085a5.877,5.877,0,0,1-1.414-2.189.567.567,0,0,0-1.058.407,7.045,7.045,0,0,0,1.539,2.455,5.546,5.546,0,0,1-2.664.594.566.566,0,0,0,0,1.131,6.505,6.505,0,0,0,3.6-.956,5.851,5.851,0,0,0,2.642.894,3.456,3.456,0,0,0-.192,1.131v.832Zm21.749,7.749a2.4,2.4,0,0,1-.436,1.386.4.4,0,0,0-.056.107c-.769,1.465-3.857,3.744-5.815,5.091a30.692,30.692,0,0,0,.786-3.473.568.568,0,0,0-.56-.656H171.037a2.438,2.438,0,0,1-2.438-2.432v-8.6a2.443,2.443,0,0,1,2.438-2.438h13.722a2.443,2.443,0,0,1,2.438,2.438Zm-8.75-8.7a.514.514,0,0,0-.085-.13.064.064,0,0,0-.04-.056h0a.563.563,0,0,0-.062-.039.569.569,0,0,0-.119-.079.512.512,0,0,0-.09,0,.883.883,0,0,0-.119,0,.669.669,0,0,0-.147.028h-.062a.638.638,0,0,0-.147.09l-.04.028-.045.068h0a.857.857,0,0,0-.079.119l-3.394,8.485a.565.565,0,0,0,.317.735.529.529,0,0,0,.209.04.565.565,0,0,0,.526-.356l.984-2.472h3.761l.99,2.472h0a.565.565,0,0,0,.526.356.557.557,0,0,0,.209-.04.565.565,0,0,0,.317-.735Zm-1.963,5.3,1.431-3.569,1.425,3.569Z" transform="translate(-154.207 -174.105)" fill="#333" stroke="#333" stroke-width="0.5"/>
</svg>
