<svg xmlns="http://www.w3.org/2000/svg" xmlns:xlink="http://www.w3.org/1999/xlink" width="198.4" height="180.05" viewBox="0 0 198.4 180.05">
  <defs>
    <linearGradient id="linear-gradient" x1="0.5" y1="1.041" x2="0.483" y2="0.069" gradientUnits="objectBoundingBox">
      <stop offset="0" stop-color="#2b9ce7"/>
      <stop offset="1" stop-color="#93c437"/>
    </linearGradient>
  </defs>
  <path id="Path_62489" data-name="Path 62489" d="M112.669,146.592a.47.47,0,1,1,0,.939H26.382L21.749,160.8l65.3.036a.472.472,0,0,1,.462.369h0l.45,2.025,34.2.075c-1.82-5.515-3.659-11.024-5.448-16.548a.47.47,0,0,1,.477-.61l12.068.129a.472.472,0,0,1,.436.3h0l10.668,26.682a.476.476,0,0,1,.019.058c.641,2.122.556,2.821-.639,3.175a9.325,9.325,0,0,1-1.744.232l-.654.053H137.3l-14.224.178v0H2.744c-.353,1-.347,1.5-.042,1.713a6.248,6.248,0,0,0,2.786.311l132.951.128a5.38,5.38,0,0,0,2-.353,3.4,3.4,0,0,0,1.547-1.174,3.1,3.1,0,0,0,.553-1.812,4.717,4.717,0,0,0-.376-1.771l-12.417-30.488a.471.471,0,0,1-.033-.174l.19-72.583c0-.408.006-.775.011-1.109.04-2.823.043-3.037-3.775-3.033l-23.691-.04q-2.971,1.292-6.375,2.39l27.537.147c1.9.008,2.786.012,3.3.565.453.486.445,1.2.433,2.541,0,.36-.008.77,0,1.234l.609,69.885a.47.47,0,0,1-.472.468l-112.317-.121L3.094,176.015H123.08v0l14.195-.178c.407-.036.533-.046.644-.055a9.068,9.068,0,0,0,1.548-.2c.454-.135.433-.58,0-2l-10.546-26.377-11.117-.119c1.789,5.521,3.633,11.028,5.451,16.54a.5.5,0,0,1,.022.145.47.47,0,0,1-.472.468l-34.642-.076,2.272,10.23a.469.469,0,0,1-.363.557.492.492,0,0,1-.138.009l-43.315.019a.468.468,0,0,1-.464-.556l1.99-10.9a.472.472,0,0,1,.472-.385l38.367.084-.324-1.457-65.577-.036a.473.473,0,0,1-.154-.026.466.466,0,0,1-.293-.594l4.945-14.166a.474.474,0,0,1,.461-.359h86.623ZM89.385,174.029l-42.2.019,1.82-9.966,38.188.084,2.191,9.863h0ZM1.759,176.92c-.87-.079-1.391-.3-1.639-.847-.292-.638-.048-1.612.575-3.276L12.819,142.95l.144-20.058h0V70.585c0-.507,0-.768-.007-1.011-.044-3.318-.053-4.076,4.414-4.082l37.25.062c-.029-.083-.058-.166-.085-.249a10.459,10.459,0,0,1-.379-4.821,11.123,11.123,0,0,1,1.737-4.472A10.8,10.8,0,0,1,67.1,51.442c5.477.95,14.367,6.713,21.988,14.171l13.156.022a47.863,47.863,0,0,0,12.272-7.57c-10.844-2.536-20.131-7.809-25.019-14.518-7.262-9.968-7.27-18.754-3.606-25.116a22.324,22.324,0,0,1,29-8.079c6.979,3.81,12.15,12.259,11.411,26.732-.353,6.908-3.265,14.2-9.81,20.455q1.414.287,2.859.51c11.354,1.754,23.915.482,34.64-5.206.258-.264.587-.618.979-1.056a10.245,10.245,0,0,1,.039-2.166c.275-1.91,1.262-2.947,3.347-5.139.714-.75,1.561-1.641,2.546-2.741l-7.714-2.847a.466.466,0,0,1-.139-.8l.176-.156h0a.472.472,0,0,1-.535-.4l-1.594-11.018a.468.468,0,0,1,.23-.47L195.769.279a.476.476,0,0,1,.591.092.465.465,0,0,1-.037.661L154.249,38.288l7.609,2.808a.484.484,0,0,1,.16.091.464.464,0,0,1,.044.66c-1.209,1.372-2.2,2.417-3.021,3.276-1.946,2.045-2.866,3.012-3.1,4.629a7.285,7.285,0,0,0-.066,1c4.748-5.443,15.3-18.4,24.781-30.03C188,11.719,194.693,3.5,197.563.156A.477.477,0,0,1,198.23.1a.466.466,0,0,1,.1.606l-5.9,10.667q.435-.533.87-1.054a.477.477,0,0,1,.581-.139.467.467,0,0,1,.224.625L177.99,44.234h0a2.132,2.132,0,0,1-2.236.9,3.124,3.124,0,0,1-.876-.234,2.087,2.087,0,0,1-.73-.513,1.379,1.379,0,0,1-.121-1.722L184.245,24.2c-6.927,10.435-13.524,22.317-19.619,33.3-2.176,3.92-4.288,7.724-6.419,11.465a.475.475,0,0,1-.643.178.467.467,0,0,1-.237-.351h0c-.6-4.791-1.15-8.356-1.568-11.079-.295-1.923-.526-3.431-.668-4.659q-.256.276-.457.479a.467.467,0,0,1-.131.1c-10.932,5.819-23.734,7.124-35.3,5.338q-1.8-.278-3.557-.654l-.306.273a47.219,47.219,0,0,1-10.859,7.047l21.65.036c4.777,0,4.773.275,4.72,3.979,0,.335-.01.7-.011,1.1l-.19,72.491,12.384,30.405a5.61,5.61,0,0,1,.443,2.119,4.015,4.015,0,0,1-.723,2.348,4.335,4.335,0,0,1-1.97,1.508,6.31,6.31,0,0,1-2.348.418L5.486,179.912c-1.559,0-2.674-.02-3.33-.479s-.805-1.2-.4-2.516h0Zm-.775-1.232c-.161-.353.068-1.143.6-2.568l12.146-29.9a.455.455,0,0,0,.033-.2l.144-20.129h0V70.586c0-.225-.006-.64-.01-1.022-.034-2.549-.042-3.131,3.469-3.135L55,66.491a10.362,10.362,0,0,0,1.45,2.259l-36.577-.2c-1.732-.009-2.725.024-3.362.528-.664.525-.808,1.414-.806,3.092l.17,67.456a.47.47,0,0,0,.472.468l102.375.044c3.836,0,5.459-.582,5.459-1.6,0-2.157-9.735-6.063-20.213-10.268-8.532-3.423-17.564-7.047-22.044-9.88-3.528-2.23-7.776-5.692-9.905-9.026a6.8,6.8,0,0,1-1.313-3.94,3.852,3.852,0,0,1,2.155-3.06c2.033-1.211,5.576-2.007,11.173-2.138l.667-.015a79.566,79.566,0,0,0,10.131-.63c6.115-.976,9.79-3.592,8.547-11.219-.969-5.944-5.027-12.532-10.248-18.482l30.467.163c1.619.007,2.372.01,2.608.264.2.215.2.8.185,1.9,0,.363-.008.776,0,1.248l.6,69.41L14.86,142.744a.473.473,0,0,0-.481.306L2.088,176.007c-.65-.027-1.008-.11-1.1-.317h0ZM55.628,65.556l32.1.054C80.4,58.6,72.08,53.258,66.934,52.366a9.875,9.875,0,0,0-10.253,4.163,10.181,10.181,0,0,0-1.589,4.095,9.547,9.547,0,0,0,.342,4.4c.059.181.123.359.194.537ZM100,66.566a73.3,73.3,0,0,1-7.141,2.377l-.563,0q-1.023-1.127-2.094-2.215l-.174-.176,9.972.017h0Zm-11.305-.019q.417.412.829.831.754.768,1.487,1.556l-33.27-.178a9.62,9.62,0,0,1-1.679-2.264l32.633.055h0Zm.584,3.312q-.866.2-1.756.392c-5.162,1.1-9.3,1.847-12.7,2.24a33.7,33.7,0,0,1-8.263.136A16,16,0,0,1,58.809,69.7l30.468.163h0Zm-31.933-.171a16.079,16.079,0,0,0,9.084,3.867,34.565,34.565,0,0,0,8.5-.132c3.437-.4,7.6-1.147,12.793-2.255q2.265-.483,4.376-1.045c5.275,5.925,9.4,12.5,10.355,18.384,1.124,6.9-2.212,9.262-7.761,10.148a78.976,78.976,0,0,1-10,.619l-.672.015c-5.778.135-9.476.981-11.64,2.27a4.731,4.731,0,0,0-2.61,3.8,7.67,7.67,0,0,0,1.457,4.5c2.211,3.46,6.579,7.027,10.2,9.315,4.565,2.886,13.632,6.524,22.2,9.96,10.173,4.082,19.625,7.874,19.624,9.4,0,.426-1.343.669-4.515.667l-101.9-.043-.169-66.988c0-1.369.079-2.065.451-2.359.4-.315,1.254-.334,2.769-.326l37.471.2h0ZM115.367,57.3c6.682-6.168,9.638-13.414,9.987-20.261.717-14.049-4.234-22.215-10.922-25.866a21.378,21.378,0,0,0-27.722,7.719C83.215,24.96,83.255,33.384,90.26,43c4.853,6.661,14.2,11.876,25.106,14.3h0ZM181.4,21.314c-9.93,12.189-21.038,25.821-25.452,30.794.117,1.333.383,3.07.75,5.466.377,2.457.859,5.6,1.392,9.7,1.8-3.187,3.732-6.657,5.71-10.222,7.608-13.706,15.995-28.812,24.85-40.8l6.5-11.745c-3.431,4.142-8.421,10.267-13.75,16.808h0Zm8.041-4.545L174.848,43.126a.518.518,0,0,0,.01.644,1.159,1.159,0,0,0,.4.27,2.2,2.2,0,0,0,.609.161c.549.066,1.107-.039,1.269-.369h0L191.462,14.1q-1.016,1.306-2.025,2.671h0ZM153.612,37.6,192.181,3.445,152.075,26.7l1.549,10.708a.461.461,0,0,1-.011.185Z" transform="translate(0.002 0.01)" fill-rule="evenodd" fill="url(#linear-gradient)"/>
</svg>
